<svg width="400" height="300" viewBox="0 0 400 300" fill="none" xmlns="http://www.w3.org/2000/svg">
  <!-- Legal rights document -->
  <rect x="100" y="40" width="200" height="260" rx="10" fill="#FFFFFF" stroke="#1A237E" stroke-width="2"/>
  
  <!-- Document title -->
  <rect x="120" y="60" width="160" height="10" rx="2" fill="#1A237E"/>
  <rect x="120" y="80" width="140" height="6" rx="2" fill="#1A237E" fill-opacity="0.7"/>
  
  <!-- Document content -->
  <rect x="120" y="110" width="160" height="4" rx="2" fill="#1A237E" fill-opacity="0.5"/>
  <rect x="120" y="125" width="160" height="4" rx="2" fill="#1A237E" fill-opacity="0.5"/>
  <rect x="120" y="140" width="160" height="4" rx="2" fill="#1A237E" fill-opacity="0.5"/>
  <rect x="120" y="155" width="140" height="4" rx="2" fill="#1A237E" fill-opacity="0.5"/>
  <rect x="120" y="170" width="120" height="4" rx="2" fill="#1A237E" fill-opacity="0.5"/>
  
  <rect x="120" y="195" width="160" height="4" rx="2" fill="#1A237E" fill-opacity="0.5"/>
  <rect x="120" y="210" width="160" height="4" rx="2" fill="#1A237E" fill-opacity="0.5"/>
  <rect x="120" y="225" width="130" height="4" rx="2" fill="#1A237E" fill-opacity="0.5"/>
  <rect x="120" y="240" width="150" height="4" rx="2" fill="#1A237E" fill-opacity="0.5"/>
  <rect x="120" y="255" width="100" height="4" rx="2" fill="#1A237E" fill-opacity="0.5"/>
  
  <!-- Magnifying glass -->
  <circle cx="250" cy="130" r="60" fill="#FF5722" fill-opacity="0.1" stroke="#FF5722" stroke-width="2"/>
  <circle cx="250" cy="130" r="40" fill="transparent" stroke="#FF5722" stroke-width="2"/>
  <line x1="294" y1="174" x2="274" y2="154" stroke="#FF5722" stroke-width="4" stroke-linecap="round"/>
  
  <!-- Paragraph checkmarks -->
  <circle cx="105" cy="125" r="5" fill="#FF5722"/>
  <path d="M102 125 L104 128 L108 122" stroke="#FFFFFF" stroke-width="1.5" stroke-linecap="round" stroke-linejoin="round"/>
  
  <circle cx="105" cy="155" r="5" fill="#FF5722"/>
  <path d="M102 155 L104 158 L108 152" stroke="#FFFFFF" stroke-width="1.5" stroke-linecap="round" stroke-linejoin="round"/>
  
  <circle cx="105" cy="210" r="5" fill="#FF5722"/>
  <path d="M102 210 L104 213 L108 207" stroke="#FFFFFF" stroke-width="1.5" stroke-linecap="round" stroke-linejoin="round"/>
  
  <circle cx="105" cy="240" r="5" fill="#FF5722"/>
  <path d="M102 240 L104 243 L108 237" stroke="#FFFFFF" stroke-width="1.5" stroke-linecap="round" stroke-linejoin="round"/>
</svg>
